<mxfile host="app.diagrams.net" agent="Mozilla/5.0 (Windows NT 10.0; Win64; x64) AppleWebKit/537.36 (KHTML, like Gecko) Chrome/127.0.0.0 Safari/537.36 Edg/127.0.0.0" version="24.7.7">
  <diagram name="Page-1" id="e7e014a7-5840-1c2e-5031-d8a46d1fe8dd">
    <mxGraphModel dx="1226" dy="667" grid="1" gridSize="10" guides="1" tooltips="1" connect="1" arrows="1" fold="1" page="1" pageScale="1" pageWidth="1169" pageHeight="826" background="none" math="0" shadow="0">
      <root>
        <mxCell id="0" />
        <mxCell id="1" parent="0" />
        <mxCell id="4ung9_-LuvrmP-A6gCC6-41" value="" style="ellipse;html=1;shape=startState;fillColor=#000000;strokeColor=#ff0000;" vertex="1" parent="1">
          <mxGeometry x="520" y="10" width="30" height="30" as="geometry" />
        </mxCell>
        <mxCell id="4ung9_-LuvrmP-A6gCC6-42" value="" style="edgeStyle=orthogonalEdgeStyle;html=1;verticalAlign=bottom;endArrow=open;endSize=8;strokeColor=#ff0000;rounded=0;" edge="1" source="4ung9_-LuvrmP-A6gCC6-41" parent="1">
          <mxGeometry relative="1" as="geometry">
            <mxPoint x="535" y="70" as="targetPoint" />
          </mxGeometry>
        </mxCell>
        <mxCell id="4ung9_-LuvrmP-A6gCC6-48" value="" style="edgeStyle=orthogonalEdgeStyle;rounded=0;orthogonalLoop=1;jettySize=auto;html=1;fillColor=#f8cecc;strokeColor=#f61109;" edge="1" parent="1" source="4ung9_-LuvrmP-A6gCC6-44">
          <mxGeometry relative="1" as="geometry">
            <mxPoint x="535" y="140" as="targetPoint" />
          </mxGeometry>
        </mxCell>
        <mxCell id="4ung9_-LuvrmP-A6gCC6-44" value="Visti website" style="rounded=1;whiteSpace=wrap;html=1;" vertex="1" parent="1">
          <mxGeometry x="475" y="70" width="120" height="40" as="geometry" />
        </mxCell>
        <mxCell id="4ung9_-LuvrmP-A6gCC6-45" value="" style="shape=line;html=1;strokeWidth=6;strokeColor=#ff0000;" vertex="1" parent="1">
          <mxGeometry x="390" y="140" width="350" height="10" as="geometry" />
        </mxCell>
        <mxCell id="4ung9_-LuvrmP-A6gCC6-46" value="" style="edgeStyle=orthogonalEdgeStyle;html=1;verticalAlign=bottom;endArrow=open;endSize=8;strokeColor=#ff0000;rounded=0;entryX=0.33;entryY=-0.04;entryDx=0;entryDy=0;entryPerimeter=0;" edge="1" source="4ung9_-LuvrmP-A6gCC6-45" parent="1">
          <mxGeometry relative="1" as="geometry">
            <mxPoint x="439.5999999999999" y="188.39999999999998" as="targetPoint" />
            <Array as="points">
              <mxPoint x="440" y="188" />
            </Array>
          </mxGeometry>
        </mxCell>
        <mxCell id="4ung9_-LuvrmP-A6gCC6-53" value="" style="endArrow=classic;html=1;rounded=0;fillColor=#f8cecc;strokeColor=#FC1212;entryX=0.5;entryY=0;entryDx=0;entryDy=0;" edge="1" parent="1">
          <mxGeometry width="50" height="50" relative="1" as="geometry">
            <mxPoint x="680" y="150" as="sourcePoint" />
            <mxPoint x="680" y="189.9999999999999" as="targetPoint" />
          </mxGeometry>
        </mxCell>
        <mxCell id="4ung9_-LuvrmP-A6gCC6-67" value="" style="edgeStyle=orthogonalEdgeStyle;rounded=0;orthogonalLoop=1;jettySize=auto;html=1;strokeColor=#FC1212;" edge="1" parent="1" source="4ung9_-LuvrmP-A6gCC6-54" target="4ung9_-LuvrmP-A6gCC6-66">
          <mxGeometry relative="1" as="geometry" />
        </mxCell>
        <mxCell id="4ung9_-LuvrmP-A6gCC6-54" value="Select Car Specification" style="rounded=1;whiteSpace=wrap;html=1;arcSize=40;" vertex="1" parent="1">
          <mxGeometry x="380" y="260" width="120" height="40" as="geometry" />
        </mxCell>
        <mxCell id="4ung9_-LuvrmP-A6gCC6-57" value="" style="edgeStyle=orthogonalEdgeStyle;rounded=0;orthogonalLoop=1;jettySize=auto;html=1;strokeColor=#FC1212;" edge="1" parent="1" source="4ung9_-LuvrmP-A6gCC6-55" target="4ung9_-LuvrmP-A6gCC6-54">
          <mxGeometry relative="1" as="geometry" />
        </mxCell>
        <mxCell id="4ung9_-LuvrmP-A6gCC6-55" value="Book Car" style="rounded=1;whiteSpace=wrap;html=1;arcSize=40;" vertex="1" parent="1">
          <mxGeometry x="380" y="190" width="120" height="40" as="geometry" />
        </mxCell>
        <mxCell id="4ung9_-LuvrmP-A6gCC6-60" value="" style="edgeStyle=orthogonalEdgeStyle;rounded=0;orthogonalLoop=1;jettySize=auto;html=1;strokeColor=#FC1212;" edge="1" parent="1" source="4ung9_-LuvrmP-A6gCC6-58" target="4ung9_-LuvrmP-A6gCC6-59">
          <mxGeometry relative="1" as="geometry" />
        </mxCell>
        <mxCell id="4ung9_-LuvrmP-A6gCC6-58" value="Enquiry" style="rounded=1;whiteSpace=wrap;html=1;arcSize=40;" vertex="1" parent="1">
          <mxGeometry x="620" y="190" width="120" height="40" as="geometry" />
        </mxCell>
        <mxCell id="4ung9_-LuvrmP-A6gCC6-63" value="" style="edgeStyle=orthogonalEdgeStyle;rounded=0;orthogonalLoop=1;jettySize=auto;html=1;strokeColor=#fd0d0d;" edge="1" parent="1" source="4ung9_-LuvrmP-A6gCC6-59" target="4ung9_-LuvrmP-A6gCC6-61">
          <mxGeometry relative="1" as="geometry" />
        </mxCell>
        <mxCell id="4ung9_-LuvrmP-A6gCC6-59" value="Open Email Form" style="rounded=1;whiteSpace=wrap;html=1;arcSize=40;" vertex="1" parent="1">
          <mxGeometry x="620" y="270" width="120" height="40" as="geometry" />
        </mxCell>
        <mxCell id="4ung9_-LuvrmP-A6gCC6-64" value="" style="edgeStyle=orthogonalEdgeStyle;rounded=0;orthogonalLoop=1;jettySize=auto;html=1;fillColor=#f8cecc;strokeColor=#f8140d;" edge="1" parent="1" source="4ung9_-LuvrmP-A6gCC6-61" target="4ung9_-LuvrmP-A6gCC6-62">
          <mxGeometry relative="1" as="geometry" />
        </mxCell>
        <mxCell id="4ung9_-LuvrmP-A6gCC6-61" value="Fill Details" style="rounded=1;whiteSpace=wrap;html=1;arcSize=40;" vertex="1" parent="1">
          <mxGeometry x="620" y="350" width="120" height="40" as="geometry" />
        </mxCell>
        <mxCell id="4ung9_-LuvrmP-A6gCC6-62" value="Send Email Notification" style="rounded=1;whiteSpace=wrap;html=1;arcSize=40;" vertex="1" parent="1">
          <mxGeometry x="620" y="430" width="120" height="40" as="geometry" />
        </mxCell>
        <mxCell id="4ung9_-LuvrmP-A6gCC6-80" value="" style="edgeStyle=orthogonalEdgeStyle;rounded=0;orthogonalLoop=1;jettySize=auto;html=1;strokeColor=#FC1212;" edge="1" parent="1" source="4ung9_-LuvrmP-A6gCC6-65" target="4ung9_-LuvrmP-A6gCC6-79">
          <mxGeometry relative="1" as="geometry" />
        </mxCell>
        <mxCell id="4ung9_-LuvrmP-A6gCC6-65" value="Record Booking Detail" style="whiteSpace=wrap;html=1;rounded=1;arcSize=40;" vertex="1" parent="1">
          <mxGeometry x="380" y="458" width="120" height="60" as="geometry" />
        </mxCell>
        <mxCell id="4ung9_-LuvrmP-A6gCC6-68" value="" style="edgeStyle=orthogonalEdgeStyle;rounded=0;orthogonalLoop=1;jettySize=auto;html=1;strokeColor=#FC1212;" edge="1" parent="1" source="4ung9_-LuvrmP-A6gCC6-66" target="4ung9_-LuvrmP-A6gCC6-65">
          <mxGeometry relative="1" as="geometry" />
        </mxCell>
        <mxCell id="4ung9_-LuvrmP-A6gCC6-77" style="edgeStyle=orthogonalEdgeStyle;rounded=0;orthogonalLoop=1;jettySize=auto;html=1;entryX=0.5;entryY=0;entryDx=0;entryDy=0;strokeColor=#FC1212;" edge="1" parent="1" source="4ung9_-LuvrmP-A6gCC6-66" target="4ung9_-LuvrmP-A6gCC6-75">
          <mxGeometry relative="1" as="geometry" />
        </mxCell>
        <mxCell id="4ung9_-LuvrmP-A6gCC6-66" value="is car available" style="rhombus;whiteSpace=wrap;html=1;" vertex="1" parent="1">
          <mxGeometry x="400" y="333" width="80" height="80" as="geometry" />
        </mxCell>
        <mxCell id="4ung9_-LuvrmP-A6gCC6-69" value="yes" style="text;html=1;align=center;verticalAlign=middle;resizable=0;points=[];autosize=1;strokeColor=none;fillColor=none;" vertex="1" parent="1">
          <mxGeometry x="430" y="428" width="40" height="30" as="geometry" />
        </mxCell>
        <mxCell id="4ung9_-LuvrmP-A6gCC6-73" value="No" style="text;html=1;align=center;verticalAlign=middle;resizable=0;points=[];autosize=1;strokeColor=none;fillColor=none;" vertex="1" parent="1">
          <mxGeometry x="475" y="370" width="40" height="30" as="geometry" />
        </mxCell>
        <mxCell id="4ung9_-LuvrmP-A6gCC6-78" style="edgeStyle=orthogonalEdgeStyle;rounded=0;orthogonalLoop=1;jettySize=auto;html=1;entryX=1;entryY=0.25;entryDx=0;entryDy=0;strokeColor=#FC1212;" edge="1" parent="1" target="4ung9_-LuvrmP-A6gCC6-54">
          <mxGeometry relative="1" as="geometry">
            <mxPoint x="585" y="420" as="sourcePoint" />
            <mxPoint x="535" y="280.06" as="targetPoint" />
            <Array as="points">
              <mxPoint x="585" y="270" />
            </Array>
          </mxGeometry>
        </mxCell>
        <mxCell id="4ung9_-LuvrmP-A6gCC6-75" value="Display Error Message" style="whiteSpace=wrap;html=1;rounded=1;arcSize=40;" vertex="1" parent="1">
          <mxGeometry x="490" y="423" width="120" height="40" as="geometry" />
        </mxCell>
        <mxCell id="4ung9_-LuvrmP-A6gCC6-83" value="" style="edgeStyle=orthogonalEdgeStyle;rounded=0;orthogonalLoop=1;jettySize=auto;html=1;fillColor=#f8cecc;strokeColor=#FC1212;" edge="1" parent="1" source="4ung9_-LuvrmP-A6gCC6-79" target="4ung9_-LuvrmP-A6gCC6-81">
          <mxGeometry relative="1" as="geometry" />
        </mxCell>
        <mxCell id="4ung9_-LuvrmP-A6gCC6-79" value="Send Booking Amount" style="whiteSpace=wrap;html=1;rounded=1;arcSize=40;" vertex="1" parent="1">
          <mxGeometry x="380" y="550" width="120" height="50" as="geometry" />
        </mxCell>
        <mxCell id="4ung9_-LuvrmP-A6gCC6-82" style="edgeStyle=orthogonalEdgeStyle;rounded=0;orthogonalLoop=1;jettySize=auto;html=1;entryX=1;entryY=0.5;entryDx=0;entryDy=0;strokeColor=#f20707;exitX=1;exitY=0.5;exitDx=0;exitDy=0;" edge="1" parent="1" source="4ung9_-LuvrmP-A6gCC6-81" target="4ung9_-LuvrmP-A6gCC6-79">
          <mxGeometry relative="1" as="geometry">
            <mxPoint x="550" y="600" as="targetPoint" />
            <Array as="points">
              <mxPoint x="540" y="670" />
              <mxPoint x="540" y="575" />
            </Array>
          </mxGeometry>
        </mxCell>
        <mxCell id="4ung9_-LuvrmP-A6gCC6-87" value="no" style="edgeLabel;html=1;align=center;verticalAlign=middle;resizable=0;points=[];" vertex="1" connectable="0" parent="4ung9_-LuvrmP-A6gCC6-82">
          <mxGeometry x="0.1863" y="-7" relative="1" as="geometry">
            <mxPoint as="offset" />
          </mxGeometry>
        </mxCell>
        <mxCell id="4ung9_-LuvrmP-A6gCC6-85" value="" style="edgeStyle=orthogonalEdgeStyle;rounded=0;orthogonalLoop=1;jettySize=auto;html=1;strokeColor=#FC1212;" edge="1" parent="1" source="4ung9_-LuvrmP-A6gCC6-81" target="4ung9_-LuvrmP-A6gCC6-84">
          <mxGeometry relative="1" as="geometry" />
        </mxCell>
        <mxCell id="4ung9_-LuvrmP-A6gCC6-81" value="is amount valid" style="rhombus;whiteSpace=wrap;html=1;" vertex="1" parent="1">
          <mxGeometry x="400" y="630" width="80" height="80" as="geometry" />
        </mxCell>
        <mxCell id="4ung9_-LuvrmP-A6gCC6-91" value="" style="edgeStyle=orthogonalEdgeStyle;rounded=0;orthogonalLoop=1;jettySize=auto;html=1;entryX=0.046;entryY=0.488;entryDx=0;entryDy=0;entryPerimeter=0;strokeColor=#FC1212;" edge="1" parent="1" source="4ung9_-LuvrmP-A6gCC6-84" target="4ung9_-LuvrmP-A6gCC6-88">
          <mxGeometry relative="1" as="geometry" />
        </mxCell>
        <mxCell id="4ung9_-LuvrmP-A6gCC6-84" value="Send Email" style="whiteSpace=wrap;html=1;rounded=1;arcSize=40;" vertex="1" parent="1">
          <mxGeometry x="380" y="750" width="120" height="40" as="geometry" />
        </mxCell>
        <mxCell id="4ung9_-LuvrmP-A6gCC6-86" value="yes" style="text;html=1;align=center;verticalAlign=middle;resizable=0;points=[];autosize=1;strokeColor=none;fillColor=none;" vertex="1" parent="1">
          <mxGeometry x="430" y="710" width="40" height="30" as="geometry" />
        </mxCell>
        <mxCell id="4ung9_-LuvrmP-A6gCC6-88" value="" style="shape=line;html=1;strokeWidth=6;strokeColor=#ff0000;" vertex="1" parent="1">
          <mxGeometry x="420" y="816" width="410" height="10" as="geometry" />
        </mxCell>
        <mxCell id="4ung9_-LuvrmP-A6gCC6-92" style="edgeStyle=orthogonalEdgeStyle;rounded=0;orthogonalLoop=1;jettySize=auto;html=1;entryX=0.636;entryY=0.582;entryDx=0;entryDy=0;entryPerimeter=0;strokeColor=#FC1212;" edge="1" parent="1" source="4ung9_-LuvrmP-A6gCC6-62" target="4ung9_-LuvrmP-A6gCC6-88">
          <mxGeometry relative="1" as="geometry" />
        </mxCell>
        <mxCell id="4ung9_-LuvrmP-A6gCC6-94" value="" style="edgeStyle=orthogonalEdgeStyle;html=1;verticalAlign=bottom;endArrow=open;endSize=8;strokeColor=#ff0000;rounded=0;" edge="1" parent="1" source="4ung9_-LuvrmP-A6gCC6-88" target="4ung9_-LuvrmP-A6gCC6-93">
          <mxGeometry relative="1" as="geometry">
            <mxPoint x="625" y="920" as="targetPoint" />
            <mxPoint x="625" y="840" as="sourcePoint" />
          </mxGeometry>
        </mxCell>
        <mxCell id="4ung9_-LuvrmP-A6gCC6-93" value="" style="ellipse;html=1;shape=endState;fillColor=#000000;strokeColor=#ff0000;" vertex="1" parent="1">
          <mxGeometry x="610" y="850" width="30" height="30" as="geometry" />
        </mxCell>
      </root>
    </mxGraphModel>
  </diagram>
</mxfile>
